Coordinates
version=1
nRows=10
nColumns=34
inDegrees=yes

Units are S.I. units (second, meters, Newtons, ...)
If the header above contains a line with 'inDegrees', this indicates whether rotational values are in degrees (yes) or radians (no).

endheader
time	pelvis_tilt	pelvis_list	pelvis_rotation	pelvis_tx	pelvis_ty	pelvis_tz	hip_flexion_r	hip_adduction_r	hip_rotation_r	knee_angle_r	ankle_angle_r	subtalar_angle_r	mtp_angle_r	hip_flexion_l	hip_adduction_l	hip_rotation_l	knee_angle_l	ankle_angle_l	subtalar_angle_l	mtp_angle_l	lumbar_extension	lumbar_bending	lumbar_rotation	arm_flex_r	arm_add_r	arm_rot_r	elbow_flex_r	pro_sup_r	arm_flex_l	arm_add_l	arm_rot_l	elbow_flex_l	pro_sup_l
      5.58333330	     17.73613193	     -6.43486121	     -1.15192459	      0.09053955	      0.52462400	     -0.00182741	     44.62341687	    -13.19225801	     -4.49211139	    133.34215888	     26.33121237	     -7.06478655	      0.00000000	     74.44764142	     -2.06912067	      3.95418344	     45.65332570	     -5.46462205	    -13.39176214	      0.00000000	    -33.69102704	      1.88281224	     26.13753673	     86.27741571	     -2.07084689	    110.92969775	     18.62792225	     36.71784912	     16.51780460	    -23.69501713	     42.02016150	     44.57897188	     57.94476803
      5.60000000	     19.10198315	     -6.61354030	     -2.16377919	      0.07193187	      0.52196339	     -0.00123093	     44.46929918	    -11.57196596	     -3.90636844	    132.98592105	     26.80963894	     -7.19538570	      0.00000000	     73.23934548	     -3.30178718	      3.85227744	     45.71086389	     -6.14679371	    -12.53168366	      0.00000000	    -35.75307274	      0.98436689	     23.02077481	     92.95976534	     -1.62882297	    110.70006137	     20.37948496	     37.06220418	     21.97455612	    -22.96005497	     41.21934310	     43.44732117	     58.04987558
      5.61666670	     20.00384092	     -6.83664754	     -2.97478874	      0.07748408	      0.52340207	      0.00228493	     44.06288614	    -10.47364457	     -3.70449806	    133.22784781	     27.78455227	     -7.43581036	      0.00000000	     72.40175079	     -4.30062345	      3.88524834	     45.50233038	     -6.86373139	    -12.25002951	      0.00000000	    -37.75519539	     -0.00194852	     20.13367792	    100.59758291	     -1.30717067	    109.97158157	     21.69798529	     37.38764512	     27.76732578	    -22.55748480	     40.69866575	     41.97105748	     58.14592495
      5.63333330	     20.06745815	     -7.33031691	     -3.74252966	      0.08148739	      0.52270885	      0.00257699	     44.21301655	     -9.45012729	     -4.04552440	    133.14805728	     27.93919014	     -8.81872970	      0.00000000	     72.62430501	     -5.23731223	      4.29585543	     45.99567023	     -6.61932019	    -11.89566817	      0.00000000	    -38.72452997	     -0.68746016	     18.55965080	    107.64157096	     -3.10182638	    107.62109922	     25.21737789	     39.02656156	     34.48447317	    -21.51706923	     42.07019901	     38.77270766	     58.71042888
      5.65000000	     19.94329638	     -6.97198934	     -4.07320578	      0.08323071	      0.52177128	      0.00507266	     44.57843249	     -9.72660756	     -3.36693509	    133.93785802	     24.58281713	    -11.04918160	      0.00000000	     73.31148372	     -5.44361151	      4.43599306	     47.21180957	     -6.44078716	    -11.35530030	      0.00000000	    -39.10335612	     -1.80293922	     15.11128522	    111.93557493	     -1.69272217	    102.17740266	     24.05742585	     42.73765622	     40.33407953	    -21.71791239	     43.46364361	     34.99769532	     58.77046705
      5.66666670	     19.38404063	     -6.78311843	     -4.53424045	      0.09097492	      0.52373170	      0.00473971	     44.69909928	     -9.85612691	     -2.82660259	    134.02786251	     21.33661635	    -13.76323089	      0.00000000	     74.32942430	     -5.70585024	      4.27984557	     48.77203432	     -5.60394238	    -11.71936604	      0.00000000	    -39.47103217	     -2.64455656	     11.42858994	    117.06774880	      0.34634495	    101.46163747	     23.98499716	     43.59061242	     44.53036273	    -22.73261542	     42.10128017	     33.71706918	     58.47874927
      5.68333330	     18.48785763	     -6.53771358	     -4.79918328	      0.08665334	      0.51564141	      0.00303311	     46.84197454	    -10.30197554	     -2.10798512	    134.83483540	     18.05582884	    -15.87336505	      0.00000000	     76.22751327	     -5.67075089	      4.17588464	     50.79509589	     -4.99440256	    -11.34898154	      0.00000000	    -39.67237815	     -3.06452068	      7.77619200	    122.68391410	      3.41546300	    100.46808044	     22.37964427	     44.74725246	     49.35037602	    -24.38498208	     41.03234300	     32.86211868	     58.34082371
      5.70000000	     17.50750044	     -6.22488366	     -5.08256337	      0.09184721	      0.51537153	      0.00030050	     47.73143060	    -11.22196112	     -1.45452187	    135.18726155	     16.30245100	    -16.20387940	      0.00000000	     78.20235710	     -5.46177411	      4.31444814	     52.51260966	     -4.72014724	    -11.60988211	      0.00000000	    -39.91809190	     -3.12749104	      3.77786439	    128.20258471	      6.07512562	     99.19620252	     21.61939247	     45.10962788	     54.07770504	    -26.61151961	     39.69176591	     32.14044897	     58.18106903
      5.71666670	     15.94586924	     -6.28180221	     -5.56529040	      0.08981041	      0.51484108	     -0.00155499	     49.83803628	    -11.65208802	     -1.41102070	    134.77917080	     16.64647869	    -16.14122167	      0.00000000	     79.91507748	     -5.59396646	      4.24553314	     52.65302531	     -5.47019407	    -12.00201980	      0.00000000	    -40.25508522	     -2.83271271	      0.30139165	    134.46752669	      8.69538838	     97.72236036	     19.80989527	     46.47526136	     58.78466865	    -29.52154231	     37.43244657	     33.64538685	     57.89720115
      5.73333330	     14.01744287	     -6.33176889	     -5.51004443	      0.09410801	      0.51437874	     -0.00313725	     51.96937782	    -12.68319778	     -1.89071998	    134.56148691	     18.03047280	    -15.49374823	      0.00000000	     82.27493890	     -5.10774840	      4.48151169	     53.19667602	     -6.15747579	    -12.61097366	      0.00000000	    -40.24881832	     -2.39451929	     -2.62073953	    140.52736340	      9.75759782	     96.76793465	     20.02326581	     46.74201110	     63.67837946	    -31.50403142	     36.43162829	     33.49287293	     57.84004041
